<svg width="512" height="512" viewBox="0 0 64 64" xmlns="http://www.w3.org/2000/svg" xmlns:xlink="http://www.w3.org/1999/xlink" overflow="hidden"><path d="M61.89 60.677 59.06 49.367C59.0173 49.1906 58.9274 49.0292 58.8 48.9L41.894 32 44.317 29.577C44.955 28.9135 45.859 28.5742 46.776 28.654 53.9139 29.4725 60.3638 24.3496 61.1824 17.2118 61.3683 15.5901 61.2474 13.9479 60.826 12.371 60.6829 11.8376 60.1345 11.5211 59.6011 11.6642 59.4316 11.7097 59.2771 11.7989 59.153 11.923L52.182 18.894 46.29 17.71 45.105 11.818 52.077 4.847C52.4675 4.4565 52.4676 3.82333 52.0771 3.43279 51.953 3.30871 51.7985 3.21946 51.629 3.174 44.6878 1.31955 37.5575 5.44319 35.703 12.3844 35.2817 13.9613 35.161 15.6034 35.347 17.225 35.426 18.1418 35.0864 19.0452 34.423 19.683L32 22.106 14.272 4.373C11.5382 1.63919 7.10581 1.63919 4.372 4.373 1.63819 7.10681 1.63819 11.5392 4.372 14.273L22.105 32 19.683 34.422C19.0463 35.0875 18.1414 35.4272 17.224 35.345 10.0861 34.5263 3.63607 39.6491 2.8174 46.7869 2.63135 48.409 2.75233 50.0517 3.174 51.629 3.31708 52.1624 3.8655 52.4789 4.39893 52.3358 4.5684 52.2903 4.72293 52.2011 4.847 52.077L11.818 45.106 17.71 46.29 18.9 52.182 11.928 59.153C11.5375 59.5435 11.5374 60.1767 11.9279 60.5672 12.052 60.6913 12.2065 60.7805 12.376 60.826 19.318 62.6776 26.4466 58.551 28.2982 51.6091 28.7183 50.0342 28.8386 48.3944 28.653 46.775 28.574 45.8582 28.9136 44.9548 29.577 44.317L32 41.894 48.9 58.8C49.028 58.9281 49.1884 59.019 49.364 59.063L60.674 61.893C60.7535 61.9128 60.8351 61.9229 60.917 61.923 61.4693 61.923 61.917 61.4753 61.917 60.923 61.917 60.8411 61.9069 60.7595 61.887 60.68ZM54.449 58.27 50.606 57.308 50.606 53.655 52.946 54.123C53.4875 54.2315 54.0145 53.8805 54.123 53.339 54.149 53.2093 54.149 53.0757 54.123 52.946L53.654 50.606 57.308 50.606 58.269 54.448C56.5307 55.1522 55.1523 56.5313 54.449 58.27ZM51.513 50.1 51.867 51.868 50.1 51.514 16.4 17.814 17.809 16.4ZM35.837 21.1C36.9316 20.0307 37.4831 18.5232 37.337 17 36.6433 10.9585 40.9786 5.49853 47.0201 4.80485 47.7819 4.71738 48.5507 4.70973 49.314 4.782L43.314 10.782C43.0772 11.0189 42.9747 11.3586 43.041 11.687L44.462 18.756C44.5411 19.1513 44.8498 19.4604 45.245 19.54L52.314 20.959C52.6423 21.0253 52.9821 20.9228 53.219 20.686L59.219 14.686C59.7942 20.7399 55.3528 26.1139 49.2988 26.6891 48.5355 26.7616 47.7668 26.7542 47.005 26.667 45.4819 26.5215 43.9747 27.0729 42.905 28.167L40.48 30.586 37.643 27.749C37.663 27.732 37.688 27.726 37.707 27.707L41.707 23.707C42.0907 23.3097 42.0797 22.6767 41.6824 22.293 41.2949 21.9187 40.6805 21.9187 40.293 22.293L36.293 26.293C36.274 26.312 36.268 26.337 36.251 26.357L33.414 23.52ZM20.637 13.567 55.672 48.606 52.849 48.606 19.223 14.981ZM5.787 12.858C3.82585 10.9139 3.81198 7.74815 5.75603 5.787 7.70008 3.82585 10.8659 3.81198 12.827 5.75603 12.8374 5.76631 12.8477 5.77663 12.858 5.787L14.979 7.908 7.908 14.979ZM9.322 16.394 16.394 9.322 19.222 12.151 12.15 19.222ZM28.163 42.9C27.0684 43.9693 26.5169 45.4768 26.663 47 27.3567 53.0415 23.0214 58.5015 16.9799 59.1952 16.2181 59.2826 15.4493 59.2903 14.686 59.218L20.686 53.218C20.9232 52.9813 21.0261 52.6415 20.96 52.313L19.54 45.243C19.4609 44.8477 19.1522 44.5386 18.757 44.459L11.687 43.04C11.3603 42.9754 11.0228 43.0778 10.787 43.313L4.787 49.313C4.21244 43.259 8.65442 37.8855 14.7084 37.3109 15.471 37.2386 16.239 37.246 17 37.333 18.5234 37.4805 20.0315 36.9288 21.1 35.833L23.523 33.41 26.359 36.247C26.34 36.264 26.315 36.27 26.296 36.289L22.296 40.289C21.8987 40.6727 21.8877 41.3057 22.2714 41.703 22.6551 42.1003 23.2882 42.1113 23.6854 41.7276 23.6938 41.7195 23.702 41.7113 23.71 41.703L27.71 37.703C27.729 37.684 27.735 37.659 27.752 37.64L30.589 40.476ZM13.564 20.64 14.981 19.223 48.606 52.849 48.606 55.672ZM56.424 58.764C56.9004 57.7302 57.7302 56.9004 58.764 56.424L59.545 59.545Z" stroke="#FFFFFF" stroke-width="1" stroke-linecap="butt" stroke-opacity="1" fill="#FFFFFF" fill-opacity="1"/></svg>